<?xml version="1.0" standalone="no"?>
<!DOCTYPE svg PUBLIC "-//W3C//DTD SVG 20010904//EN"
 "http://www.w3.org/TR/2001/REC-SVG-20010904/DTD/svg10.dtd">
<svg version="1.0" xmlns="http://www.w3.org/2000/svg"
 width="737.000000pt" height="433.000000pt" viewBox="0 0 737.000000 433.000000"
 preserveAspectRatio="xMidYMid meet">
<metadata>
Created by potrace 1.16, written by Peter Selinger 2001-2019
</metadata>
<g transform="translate(0.000000,433.000000) scale(0.100000,-0.100000)"
fill="#000000" stroke="none">
<path d="M6140 4308 c-18 -13 -42 -40 -53 -61 -11 -22 -37 -48 -61 -62 -22
-13 -54 -40 -69 -60 -15 -19 -42 -42 -60 -51 -31 -16 -32 -16 -16 2 9 11 20
33 24 51 6 31 5 32 -37 43 -81 22 -90 28 -78 49 5 11 10 22 10 24 0 9 -193
-44 -230 -63 -48 -24 -90 -74 -90 -106 0 -18 -10 -31 -35 -45 -62 -37 -72 -79
-24 -99 27 -11 37 -10 84 9 30 13 62 21 72 18 14 -4 14 -5 -4 -6 -22 -1 -70
-43 -113 -100 -20 -26 -33 -33 -65 -35 -22 -2 -54 -10 -71 -19 -33 -17 -94
-81 -94 -98 0 -6 -9 -8 -20 -4 -13 4 -20 2 -20 -7 0 -7 -10 -18 -22 -23 -26
-12 -44 -43 -58 -102 -9 -35 -18 -47 -49 -63 -46 -23 -75 -57 -91 -106 -9 -28
-15 -33 -25 -24 -8 6 -29 10 -47 8 -32 -3 -33 -4 -34 -53 0 -27 -10 -81 -22
-119 -37 -115 -33 -134 44 -207 36 -35 74 -68 84 -73 27 -12 63 -1 79 26 15
24 20 17 -84 101 -29 24 -35 35 -35 68 0 76 41 140 127 200 l42 29 38 -36 c41
-40 34 -53 -19 -35 -17 6 -32 10 -34 8 -1 -1 1 -18 5 -37 5 -25 15 -39 36 -50
20 -10 29 -21 27 -33 -4 -21 10 -21 74 -2 45 13 82 40 126 91 9 10 27 27 41
36 13 9 39 46 58 82 28 55 32 69 23 93 -10 26 -6 33 69 113 92 100 152 150
180 150 19 0 19 -1 2 -26 -17 -26 -17 -27 24 -68 41 -40 41 -41 68 -24 16 10
27 24 27 33 -3 30 168 111 199 94 14 -8 17 -5 17 19 0 25 25 62 42 62 4 0 6
-21 5 -47 -2 -42 1 -48 20 -51 12 -2 36 4 53 13 31 16 33 16 59 -8 54 -51 90
-66 145 -60 55 6 80 19 72 38 -3 9 9 8 45 -3 42 -14 52 -14 75 -2 23 13 30 12
74 -13 53 -30 91 -34 113 -13 11 12 15 11 25 -5 7 -10 12 -26 12 -35 0 -10 13
-45 29 -79 42 -89 54 -169 46 -303 -5 -84 -4 -116 5 -128 11 -13 9 -13 -14 -4
-15 5 -60 10 -99 10 -40 0 -88 5 -107 10 -27 8 -37 7 -45 -3 -5 -8 -22 -17
-37 -20 -38 -10 -95 -62 -121 -111 -16 -32 -20 -56 -19 -111 1 -38 2 -122 2
-185 0 -68 7 -145 16 -188 19 -84 11 -115 -31 -134 -14 -6 -24 -16 -22 -22 5
-15 -24 -35 -51 -36 -15 0 -26 8 -32 24 -11 30 -39 46 -77 46 -39 0 -55 -13
-51 -41 3 -21 9 -24 41 -24 33 0 44 -6 75 -42 20 -23 51 -48 69 -57 17 -9 37
-22 45 -30 11 -11 26 -12 73 -4 97 15 108 36 80 145 -12 45 -14 86 -9 185 6
118 5 131 -16 179 -16 38 -21 64 -17 93 4 23 1 56 -5 73 -11 30 -10 35 16 62
15 15 58 40 96 55 67 26 70 27 127 12 78 -20 124 -70 127 -137 1 -35 13 -66
51 -130 45 -77 49 -89 48 -144 0 -34 -18 -130 -41 -220 -22 -88 -44 -187 -48
-220 -5 -45 -14 -68 -35 -93 -36 -41 -55 -86 -79 -187 -30 -125 -43 -154 -101
-223 -92 -110 -125 -142 -149 -142 -36 0 -187 -79 -193 -101 -10 -38 3 -59 37
-59 17 0 64 -9 104 -20 84 -23 127 -25 162 -5 41 23 60 18 76 -21 l15 -36 23
21 c12 12 24 19 27 17 2 -2 2 -38 -1 -79 -4 -58 -10 -83 -28 -107 -28 -37 -22
-65 10 -57 26 7 58 -17 58 -44 0 -10 -9 -43 -21 -73 -22 -59 -19 -76 10 -76
26 0 75 156 68 214 -3 23 2 111 10 196 13 133 14 163 2 210 l-14 55 -53 3
c-67 4 -94 -13 -120 -72 -24 -53 -42 -67 -42 -32 0 14 -7 29 -16 34 -14 8 0
21 72 68 77 51 93 66 116 114 25 50 27 59 17 100 -6 25 -8 73 -5 107 6 59 68
275 143 496 l36 107 18 -30 c14 -22 26 -30 46 -30 62 0 131 73 120 127 -7 37
39 111 80 131 35 17 49 46 38 81 -5 18 -12 20 -46 15 -23 -4 -39 -3 -39 3 0 6
18 38 40 72 73 113 83 138 78 205 -4 56 -8 65 -49 107 -56 57 -84 113 -125
258 -28 97 -38 120 -72 155 -22 22 -62 73 -89 111 l-50 71 20 27 c22 28 35
125 23 171 -5 22 -11 25 -44 23 -33 -2 -37 1 -40 25 -3 24 -6 26 -36 21 -19
-3 -64 4 -107 16 -99 28 -115 27 -151 -9 -16 -16 -31 -30 -34 -30 -2 0 -4 16
-4 36 0 35 -1 36 -30 32 l-30 -5 25 27 c41 43 34 67 -27 85 -28 8 -59 15 -68
15 -12 0 -15 9 -12 42 3 32 0 45 -14 55 -22 16 -66 17 -82 1 -9 -9 -28 -4 -80
20 -81 38 -108 40 -152 10z"/>
<path d="M5836 3089 c-10 -54 -8 -61 13 -49 11 5 46 10 78 10 94 0 153 25 153
64 0 3 -53 6 -119 6 l-118 0 -7 -31z"/>
<path d="M6611 2907 c-39 -20 -47 -41 -28 -71 20 -30 51 -51 89 -60 24 -5 32
-1 58 35 23 32 30 37 30 22 0 -11 9 -28 20 -38 19 -17 19 -19 3 -37 -16 -18
-16 -20 4 -39 41 -41 83 1 83 84 0 51 -23 87 -55 87 -13 0 -50 7 -82 15 -69
18 -91 19 -122 2z"/>
<path d="M5850 2904 c-81 -27 -111 -57 -91 -91 6 -12 10 -12 20 1 19 22 35 20
69 -9 52 -43 132 -22 132 35 0 13 10 24 28 31 26 10 26 11 8 25 -19 14 -131
19 -166 8z"/>
<path d="M5270 2829 c-79 -15 -183 -74 -238 -134 -71 -78 -96 -145 -96 -265
-1 -84 3 -102 28 -158 53 -114 167 -201 372 -283 199 -79 276 -165 278 -310 1
-168 -130 -279 -329 -279 -106 0 -217 33 -303 90 l-32 22 -31 -68 c-37 -81
-34 -88 43 -127 90 -44 197 -67 317 -67 180 0 294 42 391 146 75 81 101 147
108 270 11 231 -90 356 -391 484 -216 91 -287 165 -287 300 0 59 39 140 82
173 111 85 292 88 434 7 l52 -29 31 74 c17 41 31 77 31 80 0 12 -111 56 -177
70 -74 16 -212 18 -283 4z"/>
<path d="M275 2823 c-60 -5 -197 -23 -217 -29 -17 -5 -18 -50 -18 -764 l0
-758 74 -7 c41 -4 171 -5 288 -2 249 5 328 21 475 92 205 100 335 284 379 539
20 111 14 330 -10 421 -61 225 -218 393 -436 465 -127 41 -344 59 -535 43z
m408 -172 c221 -58 358 -198 403 -412 19 -91 14 -294 -10 -384 -62 -230 -219
-376 -458 -426 -92 -18 -354 -27 -392 -13 -14 6 -16 70 -16 624 l0 619 43 5
c23 3 53 8 67 10 61 11 287 -3 363 -23z"/>
<path d="M1472 2263 c4 -623 3 -605 78 -759 85 -173 232 -257 450 -257 228 1
398 100 485 285 66 139 67 154 72 751 l5 537 -86 0 -85 0 -4 -532 c-3 -383 -7
-547 -17 -583 -35 -140 -117 -244 -223 -284 -72 -26 -200 -29 -270 -5 -66 22
-140 93 -177 167 -57 116 -60 150 -60 720 l0 517 -86 0 -85 0 3 -557z"/>
<path d="M2850 2045 l0 -775 85 0 85 0 0 318 1 317 58 63 59 62 273 -380 274
-380 103 0 c80 0 101 3 95 13 -4 6 -146 204 -316 439 -275 382 -307 430 -295
446 7 10 137 157 288 326 151 168 277 311 278 316 2 6 -38 10 -100 10 l-104 0
-305 -346 -304 -346 -3 346 -2 346 -85 0 -85 0 0 -775z"/>
<path d="M3950 2045 l0 -775 415 0 415 0 0 75 0 75 -330 0 -330 0 0 295 0 295
295 0 295 0 0 75 0 75 -295 0 -295 0 0 255 0 255 315 0 315 0 0 75 0 75 -400
0 -400 0 0 -775z"/>
<path d="M1650 580 l0 -360 65 0 65 0 0 360 0 360 -65 0 -65 0 0 -360z"/>
<path d="M1885 908 c-27 -15 -35 -28 -35 -61 0 -41 16 -65 49 -72 30 -6 69 7
83 29 10 14 10 68 0 83 -7 11 -55 33 -70 33 -4 0 -16 -6 -27 -12z"/>
<path d="M206 894 c-35 -11 -65 -31 -107 -73 -47 -48 -61 -69 -78 -125 -69
-224 29 -439 217 -476 32 -6 126 -34 211 -61 84 -28 154 -49 156 -47 7 9 34
102 31 105 -2 3 -33 11 -67 19 -96 22 -97 22 -61 44 44 27 90 94 109 159 23
81 20 202 -7 276 -29 77 -105 155 -175 178 -60 21 -163 21 -229 1z m195 -116
c21 -14 45 -46 63 -82 25 -50 30 -70 30 -137 0 -67 -5 -86 -30 -136 -71 -139
-224 -138 -297 2 -24 48 -34 162 -18 221 35 129 158 194 252 132z"/>
<path d="M2138 823 l-58 -15 0 -49 0 -49 -35 0 -35 0 0 -50 0 -50 35 0 35 0 0
-145 c0 -159 10 -201 53 -230 33 -21 86 -29 141 -21 l46 7 0 53 0 52 -35 -4
c-25 -3 -42 1 -55 13 -18 16 -20 32 -20 147 l0 128 54 0 c49 0 55 2 58 22 4
26 163 -367 160 -396 -2 -27 -70 -94 -109 -108 -22 -8 -32 -17 -29 -28 3 -8
10 -34 16 -58 10 -39 13 -42 38 -36 45 10 109 52 142 91 46 56 84 139 175 385
l83 223 -66 3 c-36 2 -68 -1 -73 -5 -4 -4 -26 -73 -49 -153 -24 -80 -45 -149
-47 -153 -3 -5 -29 63 -57 150 l-52 158 -122 3 -122 3 0 64 c0 36 -3 65 -7 64
-5 -1 -34 -8 -65 -16z"/>
<path d="M4723 783 l-33 -4 0 -280 0 -279 40 0 40 0 0 121 0 121 55 -4 c83 -7
88 -14 135 -195 11 -43 11 -43 56 -43 40 0 45 2 39 17 -4 10 -17 56 -30 103
-24 96 -37 124 -63 140 -16 9 -16 11 1 21 54 32 84 101 73 165 -9 48 -59 98
-111 113 -38 10 -134 12 -202 4z m186 -78 c56 -28 61 -107 9 -150 -24 -20 -40
-25 -89 -25 l-59 0 0 95 0 95 55 0 c31 0 69 -7 84 -15z"/>
<path d="M1306 719 c-102 -17 -118 -32 -96 -96 l11 -30 57 20 c84 28 151 11
165 -43 4 -16 -3 -20 -52 -25 -124 -14 -190 -50 -216 -119 -32 -83 -6 -161 66
-199 44 -24 134 -18 183 12 33 21 34 21 39 1 4 -17 13 -20 64 -20 l58 0 -3
162 c-2 169 -11 233 -39 275 -34 52 -138 79 -237 62z m144 -305 c0 -37 -5 -51
-29 -75 -35 -35 -81 -39 -111 -9 -54 54 11 122 123 129 14 1 17 -7 17 -45z"/>
<path d="M682 518 c2 -160 6 -198 20 -225 51 -91 191 -110 278 -36 l30 25 0
-31 0 -31 61 0 62 0 -7 31 c-3 17 -6 128 -6 245 l0 214 -65 0 -65 0 0 -155 c0
-175 -8 -203 -60 -225 -44 -18 -81 -4 -102 40 -15 29 -18 62 -18 188 l0 152
-66 0 -66 0 4 -192z"/>
<path d="M1850 465 l0 -245 65 0 65 0 0 245 0 245 -65 0 -65 0 0 -245z"/>
<path d="M3154 629 c-45 -13 -76 -51 -81 -101 -4 -37 -1 -49 20 -74 14 -17 45
-39 69 -49 83 -36 107 -75 68 -110 -15 -14 -30 -16 -67 -12 -27 3 -58 8 -69
12 -18 5 -23 2 -28 -21 -9 -35 8 -49 70 -59 118 -17 203 44 191 137 -7 50 -29
75 -93 104 -81 36 -101 65 -68 98 18 18 76 21 106 5 24 -13 26 -11 34 28 6 30
4 32 -32 42 -45 13 -77 13 -120 0z"/>
<path d="M3605 626 c-116 -43 -166 -195 -104 -318 71 -140 297 -123 355 27 25
66 17 170 -18 222 -45 68 -150 99 -233 69z m140 -89 c109 -109 -11 -328 -130
-235 -98 77 -54 268 62 268 26 0 43 -8 68 -33z"/>
<path d="M4455 625 c-16 -9 -35 -23 -42 -32 -10 -13 -13 -12 -19 11 -5 22 -12
26 -40 26 l-34 0 0 -205 0 -205 45 0 45 0 0 130 c0 79 5 139 12 155 13 29 55
55 88 55 17 0 20 6 20 40 0 35 -3 40 -22 40 -13 0 -36 -7 -53 -15z"/>
<path d="M5175 621 c-77 -35 -116 -105 -114 -206 1 -52 14 -96 39 -132 42 -58
151 -85 245 -61 47 13 50 15 47 43 -5 39 -5 39 -47 25 -21 -7 -60 -10 -87 -8
-59 6 -104 44 -114 96 l-6 32 142 0 143 0 -6 60 c-7 76 -37 126 -91 151 -52
23 -100 24 -151 0z m133 -75 c11 -11 24 -33 27 -48 l7 -28 -101 0 c-56 0 -101
2 -101 5 0 13 29 61 46 76 36 32 90 30 122 -5z"/>
<path d="M5605 635 c-5 -2 -22 -6 -37 -9 -39 -9 -98 -64 -119 -111 -24 -52
-24 -138 0 -190 42 -94 140 -133 258 -104 43 11 45 13 39 42 -3 17 -7 32 -9
33 -1 1 -26 -3 -55 -9 -47 -10 -58 -9 -90 8 -55 31 -76 67 -76 129 0 61 19 97
67 126 35 22 81 25 123 10 32 -12 32 -12 40 27 6 30 4 32 -32 42 -37 10 -88
13 -109 6z"/>
<path d="M6080 624 c-19 -8 -42 -22 -52 -31 -17 -15 -18 -14 -18 10 0 25 -3
27 -41 27 l-42 0 7 -61 c3 -34 6 -163 6 -285 l0 -224 40 0 40 0 0 94 0 95 47
-21 c129 -57 253 40 253 199 0 35 -7 80 -16 101 -39 95 -133 135 -224 96z
m117 -86 c83 -78 33 -258 -72 -258 -29 0 -45 8 -71 34 -32 32 -34 38 -34 100
0 77 17 118 58 141 35 20 88 12 119 -17z"/>
<path d="M6455 626 c-53 -20 -91 -63 -109 -127 -20 -66 -20 -92 -1 -156 28
-95 112 -141 231 -128 78 8 98 21 88 58 -5 21 -11 26 -23 22 -9 -4 -41 -9 -72
-12 -84 -8 -136 26 -154 100 l-7 27 141 0 141 0 0 48 c0 56 -32 127 -70 154
-35 25 -115 32 -165 14z m122 -66 c6 0 33 -61 33 -75 0 -12 -16 -15 -95 -15
-104 0 -112 5 -78 57 23 35 68 53 107 42 17 -5 32 -9 33 -9z"/>
<path d="M2940 425 l0 -205 40 0 40 0 0 205 0 205 -40 0 -40 0 0 -205z"/>
<path d="M3910 486 c0 -149 9 -195 43 -234 46 -50 141 -53 197 -6 l30 26 0
-26 c0 -24 4 -26 41 -26 l42 0 -7 77 c-3 42 -6 134 -6 205 l0 128 -40 0 -40 0
0 -144 c0 -140 -1 -144 -25 -169 -52 -52 -120 -41 -142 23 -7 20 -12 91 -12
163 l-1 127 -40 0 -40 0 0 -144z"/>
<path d="M5780 425 l0 -205 45 0 45 0 0 205 0 205 -45 0 -45 0 0 -205z"/>
</g>
</svg>
