<?xml version="1.0" encoding="UTF-8"?>
<svg xmlns="http://www.w3.org/2000/svg" xmlns:xlink="http://www.w3.org/1999/xlink" width="538.64pt" height="682.28pt" viewBox="0 0 538.64 682.28" version="1.1">
<g id="surface1">
<path style=" stroke:none;fill-rule:nonzero;fill:rgb(2.69928%,57.598877%,26.699829%);fill-opacity:1;" d="M 538.640625 341.136719 C 538.640625 529.546875 418.066406 682.28125 269.320313 682.28125 C 120.578125 682.28125 0 529.546875 0 341.136719 C 0 152.730469 120.578125 0 269.320313 0 C 418.066406 0 538.640625 152.730469 538.640625 341.136719 "/>
<path style=" stroke:none;fill-rule:nonzero;fill:rgb(100%,100%,100%);fill-opacity:1;" d="M 269.320313 19.863281 C 129.6875 19.863281 16.09375 163.984375 16.09375 341.136719 C 16.09375 518.289063 129.6875 662.414063 269.320313 662.414063 C 408.953125 662.414063 522.550781 518.289063 522.550781 341.136719 C 522.550781 163.984375 408.953125 19.863281 269.320313 19.863281 M 269.320313 666.304688 C 127.546875 666.304688 12.199219 520.4375 12.199219 341.136719 C 12.199219 161.84375 127.546875 15.96875 269.320313 15.96875 C 411.097656 15.96875 526.441406 161.84375 526.441406 341.136719 C 526.441406 520.4375 411.097656 666.304688 269.320313 666.304688 "/>
<path style=" stroke:none;fill-rule:nonzero;fill:rgb(100%,100%,100%);fill-opacity:1;" d="M 268.953125 238.5 C 271.601563 238.167969 274.207031 237.566406 276.769531 236.699219 C 279.332031 235.832031 281.894531 234.777344 284.453125 233.539063 C 287.023438 232.296875 289.5625 230.871094 292.089844 229.257813 C 294.613281 227.648438 297.113281 225.847656 299.589844 223.863281 C 301.492188 222.375 303.1875 220.84375 304.675781 219.273438 C 306.164063 217.703125 307.488281 216.09375 308.644531 214.4375 C 309.808594 212.785156 310.695313 211.316406 311.3125 210.035156 C 311.933594 208.753906 312.238281 207.613281 312.238281 206.621094 C 312.238281 205.960938 312.140625 205.339844 311.933594 204.765625 C 311.722656 204.1875 311.417969 203.730469 311 203.398438 C 310.671875 202.984375 310.238281 202.695313 309.699219 202.527344 C 309.160156 202.367188 308.558594 202.28125 307.898438 202.28125 C 305.589844 202.28125 302.941406 203.109375 299.964844 204.765625 C 296.980469 206.417969 293.675781 208.898438 290.042969 212.207031 C 286.484375 215.511719 282.949219 219.359375 279.4375 223.742188 C 275.921875 228.121094 272.429688 233.085938 268.953125 238.625 Z M 220.332031 277.691406 C 218.433594 277.035156 216.550781 276.410156 214.6875 275.835938 C 212.828125 275.257813 211.117188 274.800781 209.542969 274.46875 C 207.890625 274.054688 206.378906 273.765625 205.015625 273.601563 C 203.652344 273.433594 202.429688 273.351563 201.355469 273.351563 C 200.199219 273.351563 199.164063 273.433594 198.253906 273.601563 C 197.347656 273.765625 196.480469 274.015625 195.648438 274.34375 C 194.90625 274.679688 194.347656 275.070313 193.976563 275.523438 C 193.601563 275.976563 193.417969 276.410156 193.417969 276.824219 C 193.417969 277.402344 193.664063 277.902344 194.164063 278.316406 C 194.660156 278.730469 195.402344 279.101563 196.394531 279.429688 C 197.386719 279.765625 198.5625 279.988281 199.929688 280.113281 C 201.292969 280.234375 202.84375 280.300781 204.578125 280.300781 C 205.820313 280.300781 207.0625 280.257813 208.304688 280.175781 C 209.542969 280.09375 210.863281 279.925781 212.269531 279.679688 C 213.101563 279.511719 213.988281 279.347656 214.9375 279.183594 C 215.890625 279.019531 216.816406 278.808594 217.730469 278.5625 C 218.144531 278.480469 218.558594 278.375 218.96875 278.25 C 219.382813 278.128906 219.835938 277.984375 220.332031 277.816406 Z M 276.519531 199.925781 L 275.90625 201.785156 C 274.328125 201.457031 272.777344 201.144531 271.25 200.855469 C 269.714844 200.566406 268.246094 200.339844 266.847656 200.171875 C 266.101563 200.09375 265.375 200.007813 264.675781 199.925781 C 263.972656 199.847656 263.292969 199.761719 262.628906 199.679688 C 261.964844 199.679688 261.285156 199.660156 260.582031 199.613281 C 259.878906 199.574219 259.15625 199.554688 258.410156 199.554688 C 253.863281 199.554688 249.664063 200.132813 245.824219 201.289063 C 241.976563 202.449219 238.480469 204.1875 235.34375 206.5 C 232.199219 208.816406 229.84375 211.296875 228.269531 213.941406 C 226.699219 216.589844 225.914063 219.394531 225.914063 222.375 C 225.914063 225.019531 226.578125 227.421875 227.898438 229.566406 C 229.222656 231.71875 231.246094 233.621094 233.976563 235.277344 C 236.621094 236.847656 239.722656 238.066406 243.277344 238.933594 C 246.835938 239.804688 250.804688 240.234375 255.1875 240.234375 L 255.996094 240.234375 C 256.285156 240.234375 256.550781 240.195313 256.800781 240.109375 L 260.144531 240.109375 C 264.613281 233.828125 269.035156 228.25 273.417969 223.367188 C 277.804688 218.488281 282.144531 214.273438 286.449219 210.714844 C 290.742188 207.078125 294.695313 204.371094 298.289063 202.59375 C 301.886719 200.816406 305.085938 199.925781 307.898438 199.925781 C 309.0625 199.925781 310.050781 200.070313 310.878906 200.359375 C 311.707031 200.652344 312.453125 201.085938 313.113281 201.664063 C 313.773438 202.238281 314.246094 202.902344 314.535156 203.644531 C 314.824219 204.390625 314.96875 205.21875 314.96875 206.128906 C 314.96875 207.699219 314.617188 209.375 313.921875 211.148438 C 313.214844 212.929688 312.117188 214.808594 310.628906 216.792969 C 309.144531 218.777344 307.367188 220.742188 305.300781 222.683594 C 303.230469 224.628906 300.875 226.554688 298.230469 228.453125 C 295.660156 230.359375 293.0625 232.070313 290.414063 233.601563 C 287.761719 235.132813 285.117188 236.472656 282.472656 237.632813 C 279.910156 238.710938 277.347656 239.617188 274.785156 240.359375 C 272.214844 241.101563 269.652344 241.683594 267.09375 242.097656 C 264.117188 246.894531 261.242188 251.152344 258.472656 254.871094 C 255.703125 258.59375 252.992188 261.777344 250.347656 264.425781 C 247.785156 267.070313 245.097656 269.425781 242.289063 271.492188 C 239.476563 273.5625 236.578125 275.296875 233.605469 276.699219 C 235.257813 277.199219 236.785156 277.632813 238.191406 278.003906 C 239.597656 278.375 240.835938 278.644531 241.917969 278.808594 C 243.070313 279.058594 244.1875 279.222656 245.261719 279.308594 C 246.335938 279.390625 247.328125 279.429688 248.242188 279.429688 C 249.394531 279.429688 250.550781 279.367188 251.714844 279.242188 C 252.871094 279.121094 254.027344 278.894531 255.1875 278.5625 C 256.34375 278.316406 257.5 277.960938 258.660156 277.511719 C 259.816406 277.054688 260.972656 276.535156 262.132813 275.960938 C 264.53125 274.714844 267.070313 273.105469 269.761719 271.121094 C 272.445313 269.136719 275.320313 266.738281 278.382813 263.925781 L 279.992188 265.664063 C 276.855469 268.722656 273.8125 271.347656 270.878906 273.539063 C 267.9375 275.730469 265.109375 277.527344 262.378906 278.933594 C 259.652344 280.257813 256.878906 281.207031 254.070313 281.785156 C 251.257813 282.363281 248.363281 282.65625 245.390625 282.65625 C 244.0625 282.65625 242.617188 282.59375 241.046875 282.46875 C 239.476563 282.34375 237.863281 282.117188 236.207031 281.785156 C 234.640625 281.621094 232.921875 281.3125 231.0625 280.859375 C 229.199219 280.402344 227.277344 279.886719 225.292969 279.308594 C 223.226563 279.96875 221.265625 280.527344 219.402344 280.980469 C 217.542969 281.4375 215.746094 281.703125 214.007813 281.785156 C 212.1875 282.117188 210.433594 282.34375 208.734375 282.46875 C 207.039063 282.59375 205.40625 282.65625 203.835938 282.65625 C 201.605469 282.65625 199.640625 282.53125 197.945313 282.285156 C 196.25 282.035156 194.863281 281.742188 193.792969 281.414063 C 192.632813 280.917969 191.785156 280.300781 191.246094 279.554688 C 190.714844 278.808594 190.4375 277.902344 190.4375 276.824219 C 190.4375 275.917969 190.75 275.046875 191.371094 274.222656 C 191.988281 273.394531 192.921875 272.691406 194.164063 272.113281 C 195.402344 271.449219 196.847656 270.957031 198.503906 270.621094 C 200.15625 270.296875 202.015625 270.128906 204.085938 270.128906 C 205.820313 270.128906 207.640625 270.25 209.542969 270.5 C 211.445313 270.746094 213.429688 271.078125 215.492188 271.492188 C 217.476563 271.910156 219.652344 272.464844 222.007813 273.164063 C 224.363281 273.867188 226.867188 274.679688 229.511719 275.585938 C 231.746094 274.425781 234.039063 272.875 236.398438 270.933594 C 238.753906 268.992188 241.171875 266.65625 243.648438 263.925781 C 246.046875 261.117188 248.488281 257.953125 250.96875 254.4375 C 253.449219 250.921875 255.929688 247.058594 258.410156 242.839844 L 254.5625 242.71875 C 249.769531 242.800781 245.488281 242.363281 241.726563 241.414063 C 237.964844 240.464844 234.640625 239.039063 231.746094 237.132813 C 228.933594 235.234375 226.804688 233.0625 225.355469 230.625 C 223.910156 228.183594 223.1875 225.4375 223.1875 222.375 C 223.1875 218.984375 224.03125 215.824219 225.730469 212.886719 C 227.421875 209.953125 229.96875 207.203125 233.355469 204.636719 C 236.746094 202.15625 240.511719 200.277344 244.644531 198.992188 C 248.777344 197.714844 253.242188 197.070313 258.039063 197.070313 C 259.691406 197.070313 261.285156 197.136719 262.8125 197.257813 C 264.339844 197.382813 265.890625 197.570313 267.464844 197.816406 C 268.210938 197.984375 268.953125 198.148438 269.699219 198.3125 C 270.445313 198.480469 271.226563 198.644531 272.058594 198.808594 C 272.800781 198.976563 273.546875 199.160156 274.285156 199.367188 C 275.03125 199.574219 275.773438 199.800781 276.519531 200.050781 "/>
<path style=" stroke:none;fill-rule:nonzero;fill:rgb(100%,100%,100%);fill-opacity:1;" d="M 311.128906 246.5625 C 310.050781 246.644531 308.832031 246.976563 307.464844 247.554688 C 306.105469 248.132813 304.59375 249 302.941406 250.160156 C 301.203125 251.234375 299.445313 252.558594 297.667969 254.128906 C 295.886719 255.703125 294.09375 257.433594 292.277344 259.339844 C 290.128906 261.488281 288.226563 263.535156 286.566406 265.476563 C 284.921875 267.417969 283.511719 269.222656 282.351563 270.875 C 281.195313 272.527344 280.304688 273.972656 279.683594 275.214844 C 279.066406 276.453125 278.753906 277.527344 278.753906 278.4375 C 278.753906 278.769531 278.816406 279.058594 278.9375 279.308594 C 279.066406 279.554688 279.210938 279.765625 279.378906 279.929688 C 279.621094 280.09375 279.894531 280.214844 280.183594 280.300781 C 280.472656 280.382813 280.820313 280.421875 281.234375 280.421875 C 282.480469 280.421875 283.863281 280.132813 285.390625 279.554688 C 286.917969 278.976563 288.636719 278.109375 290.539063 276.953125 C 292.359375 275.792969 294.214844 274.390625 296.117188 272.730469 C 298.019531 271.078125 299.964844 269.222656 301.945313 267.152344 C 303.929688 265.164063 305.671875 263.308594 307.160156 261.570313 C 308.644531 259.832031 309.929688 258.179688 311 256.609375 C 312.078125 255.039063 312.863281 253.652344 313.355469 252.453125 C 313.859375 251.253906 314.101563 250.242188 314.101563 249.414063 C 314.101563 249 314.039063 248.628906 313.921875 248.296875 C 313.796875 247.972656 313.609375 247.679688 313.355469 247.429688 C 313.113281 247.183594 312.800781 246.996094 312.429688 246.871094 C 312.058594 246.746094 311.621094 246.6875 311.128906 246.6875 Z M 319.933594 245.570313 L 326.628906 245.570313 L 306.164063 272.980469 L 306.046875 273.230469 C 305.132813 274.554688 304.445313 275.648438 304 276.515625 C 303.542969 277.386719 303.316406 278.027344 303.316406 278.4375 C 303.316406 278.769531 303.355469 279.039063 303.4375 279.242188 C 303.519531 279.453125 303.605469 279.640625 303.6875 279.800781 C 303.847656 279.886719 304.074219 279.96875 304.363281 280.054688 C 304.652344 280.132813 304.964844 280.175781 305.300781 280.175781 C 306.046875 280.175781 307.078125 279.867188 308.398438 279.242188 C 309.722656 278.625 311.335938 277.65625 313.234375 276.328125 C 315.136719 274.925781 317.285156 273.289063 319.6875 271.429688 C 322.082031 269.570313 324.691406 267.398438 327.503906 264.917969 L 329.113281 266.53125 C 326.386719 269.179688 323.800781 271.492188 321.359375 273.476563 C 318.921875 275.460938 316.625 277.15625 314.472656 278.5625 C 312.40625 279.886719 310.550781 280.859375 308.894531 281.476563 C 307.238281 282.097656 305.832031 282.410156 304.675781 282.410156 C 303.929688 282.410156 303.269531 282.324219 302.691406 282.15625 C 302.113281 281.992188 301.574219 281.742188 301.078125 281.414063 C 300.671875 281.003906 300.359375 280.484375 300.152344 279.867188 C 299.941406 279.242188 299.839844 278.5625 299.839844 277.816406 C 299.839844 277.402344 299.878906 276.992188 299.964844 276.578125 C 300.046875 276.164063 300.128906 275.707031 300.214844 275.214844 C 300.382813 274.71875 300.539063 274.179688 300.707031 273.601563 C 300.875 273.023438 301.035156 272.402344 301.203125 271.742188 C 299.964844 272.898438 298.746094 273.996094 297.546875 275.027344 C 296.34375 276.0625 295.128906 276.992188 293.890625 277.816406 C 293.230469 278.230469 292.582031 278.625 291.964844 278.996094 C 291.34375 279.367188 290.742188 279.722656 290.164063 280.054688 C 288.347656 280.878906 286.675781 281.519531 285.140625 281.972656 C 283.609375 282.429688 282.191406 282.65625 280.859375 282.65625 C 279.871094 282.65625 279.003906 282.53125 278.261719 282.285156 C 277.515625 282.035156 276.855469 281.703125 276.277344 281.292969 C 275.699219 280.714844 275.28125 280.054688 275.027344 279.308594 C 274.785156 278.5625 274.664063 277.691406 274.664063 276.699219 C 274.664063 274.882813 275.015625 272.980469 275.714844 270.996094 C 276.421875 269.011719 277.46875 266.949219 278.878906 264.796875 C 280.199219 262.644531 281.832031 260.601563 283.777344 258.65625 C 285.726563 256.714844 287.894531 254.832031 290.285156 253.011719 C 292.109375 251.609375 293.902344 250.363281 295.683594 249.289063 C 297.464844 248.21875 299.300781 247.265625 301.203125 246.4375 C 303.101563 245.609375 304.882813 244.992188 306.539063 244.578125 C 308.1875 244.164063 309.722656 243.957031 311.128906 243.957031 C 312.03125 243.957031 312.839844 244.082031 313.546875 244.328125 C 314.246094 244.578125 314.808594 244.90625 315.21875 245.320313 C 315.714844 245.734375 316.070313 246.253906 316.273438 246.871094 C 316.480469 247.492188 316.589844 248.261719 316.589844 249.167969 L 316.589844 250.28125 "/>
<path style=" stroke:none;fill-rule:nonzero;fill:rgb(2.69928%,57.598877%,26.699829%);fill-opacity:1;" d="M 94.386719 362.222656 C 97.433594 362.222656 100.035156 361.910156 102.109375 361.292969 C 104.09375 360.699219 105.679688 359.925781 106.820313 358.984375 C 107.902344 358.09375 108.660156 357.078125 109.144531 355.871094 C 109.652344 354.609375 109.90625 353.214844 109.90625 351.722656 C 109.90625 350.296875 109.652344 348.941406 109.144531 347.679688 C 108.660156 346.464844 107.890625 345.425781 106.792969 344.488281 C 105.675781 343.542969 104.109375 342.78125 102.136719 342.21875 C 100.054688 341.628906 97.445313 341.328125 94.386719 341.328125 L 84.710938 341.328125 L 84.710938 362.222656 Z M 72.917969 407.113281 L 72.917969 330.152344 L 96.234375 330.152344 C 104.0625 330.152344 110.386719 331.921875 115.027344 335.410156 C 119.863281 339.046875 122.320313 344.535156 122.320313 351.722656 C 122.320313 358.914063 119.867188 364.417969 115.035156 368.082031 C 110.394531 371.613281 104.070313 373.402344 96.234375 373.402344 L 84.710938 373.402344 L 84.710938 407.113281 "/>
<path style=" stroke:none;fill-rule:nonzero;fill:rgb(100%,100%,100%);fill-opacity:1;" d="M 86.65625 360.277344 L 94.386719 360.277344 C 97.253906 360.277344 99.667969 359.992188 101.554688 359.425781 C 103.289063 358.910156 104.644531 358.257813 105.585938 357.484375 C 106.421875 356.792969 106.980469 356.050781 107.339844 355.152344 C 107.75 354.121094 107.960938 352.96875 107.960938 351.722656 C 107.960938 350.550781 107.75 349.429688 107.339844 348.402344 C 106.976563 347.492188 106.386719 346.699219 105.53125 345.972656 C 104.632813 345.210938 103.308594 344.574219 101.605469 344.089844 C 99.691406 343.546875 97.265625 343.273438 94.386719 343.273438 L 86.65625 343.273438 Z M 94.386719 364.171875 L 82.765625 364.171875 L 82.765625 339.382813 L 94.386719 339.382813 C 97.621094 339.382813 100.40625 339.703125 102.664063 340.347656 C 104.90625 340.980469 106.71875 341.878906 108.050781 343.007813 C 109.402344 344.15625 110.355469 345.449219 110.953125 346.960938 C 111.546875 348.445313 111.851563 350.050781 111.851563 351.722656 C 111.851563 353.46875 111.546875 355.105469 110.949219 356.59375 C 110.347656 358.109375 109.398438 359.382813 108.058594 360.488281 C 106.71875 361.589844 104.902344 362.488281 102.667969 363.160156 C 100.414063 363.828125 97.628906 364.171875 94.386719 364.171875 M 74.863281 405.167969 L 82.765625 405.167969 L 82.765625 371.457031 L 96.234375 371.457031 C 103.636719 371.457031 109.5625 369.800781 113.859375 366.535156 C 118.183594 363.253906 120.371094 358.269531 120.371094 351.722656 C 120.371094 345.179688 118.179688 340.21875 113.859375 336.964844 C 109.5625 333.738281 103.636719 332.101563 96.234375 332.101563 L 74.863281 332.101563 Z M 86.65625 409.058594 L 70.96875 409.058594 L 70.96875 328.207031 L 96.234375 328.207031 C 104.496094 328.207031 111.214844 330.109375 116.199219 333.855469 C 121.550781 337.882813 124.265625 343.890625 124.265625 351.722656 C 124.265625 359.550781 121.554688 365.582031 116.210938 369.632813 C 111.226563 373.425781 104.503906 375.347656 96.234375 375.347656 L 86.65625 375.347656 "/>
<path style=" stroke:none;fill-rule:nonzero;fill:rgb(2.69928%,57.598877%,26.699829%);fill-opacity:1;" d="M 195.523438 339.484375 C 191.230469 339.484375 187.335938 340.277344 183.953125 341.839844 C 180.550781 343.417969 177.636719 345.546875 175.292969 348.175781 C 172.929688 350.816406 171.09375 353.941406 169.832031 357.441406 C 168.558594 360.976563 167.914063 364.738281 167.914063 368.632813 C 167.914063 372.523438 168.558594 376.285156 169.832031 379.820313 C 171.09375 383.328125 172.933594 386.445313 175.292969 389.09375 C 177.644531 391.726563 180.5625 393.859375 183.953125 395.425781 C 187.335938 396.988281 191.230469 397.78125 195.523438 397.78125 C 199.820313 397.78125 203.714844 396.988281 207.105469 395.425781 C 210.492188 393.855469 213.402344 391.726563 215.753906 389.09375 C 218.113281 386.453125 219.949219 383.335938 221.21875 379.820313 C 222.488281 376.285156 223.136719 372.523438 223.136719 368.632813 C 223.136719 364.738281 222.488281 360.976563 221.21875 357.441406 C 219.953125 353.933594 218.113281 350.808594 215.753906 348.175781 C 213.414063 345.546875 210.5 343.417969 207.101563 341.839844 C 203.714844 340.277344 199.820313 339.484375 195.523438 339.484375 M 195.523438 408.957031 C 189.863281 408.957031 184.53125 407.933594 179.667969 405.917969 C 174.8125 403.902344 170.535156 401.070313 166.964844 397.5 C 163.394531 393.929688 160.558594 389.636719 158.539063 384.738281 C 156.527344 379.851563 155.507813 374.433594 155.507813 368.632813 C 155.507813 362.832031 156.527344 357.410156 158.539063 352.527344 C 160.5625 347.625 163.394531 343.335938 166.964844 339.765625 C 170.535156 336.191406 174.804688 333.363281 179.664063 331.347656 C 184.53125 329.328125 189.863281 328.308594 195.523438 328.308594 C 201.183594 328.308594 206.515625 329.328125 211.382813 331.34375 C 216.242188 333.363281 220.515625 336.191406 224.085938 339.765625 C 227.65625 343.335938 230.488281 347.625 232.507813 352.527344 C 234.519531 357.425781 235.542969 362.839844 235.542969 368.632813 C 235.542969 374.425781 234.519531 379.839844 232.507813 384.738281 C 230.492188 389.636719 227.65625 393.929688 224.085938 397.5 C 220.515625 401.070313 216.238281 403.902344 211.382813 405.917969 C 206.515625 407.933594 201.183594 408.957031 195.523438 408.957031 "/>
<path style=" stroke:none;fill-rule:nonzero;fill:rgb(100%,100%,100%);fill-opacity:1;" d="M 195.523438 341.429688 C 191.515625 341.429688 187.894531 342.164063 184.769531 343.609375 C 181.609375 345.074219 178.910156 347.042969 176.746094 349.46875 C 174.550781 351.925781 172.839844 354.828125 171.664063 358.101563 C 170.464844 361.425781 169.859375 364.96875 169.859375 368.632813 C 169.859375 372.296875 170.464844 375.839844 171.664063 379.160156 C 172.839844 382.429688 174.546875 385.332031 176.746094 387.796875 C 178.921875 390.230469 181.617188 392.203125 184.769531 393.65625 C 187.890625 395.101563 191.507813 395.835938 195.523438 395.835938 C 199.539063 395.835938 203.160156 395.101563 206.289063 393.65625 C 209.4375 392.199219 212.132813 390.226563 214.304688 387.796875 C 216.488281 385.347656 218.199219 382.445313 219.386719 379.160156 C 220.582031 375.839844 221.191406 372.296875 221.191406 368.632813 C 221.191406 364.96875 220.582031 361.425781 219.386719 358.105469 C 218.207031 354.828125 216.496094 351.925781 214.304688 349.46875 C 212.144531 347.046875 209.445313 345.074219 206.28125 343.605469 C 203.152344 342.164063 199.535156 341.429688 195.523438 341.429688 M 195.523438 399.726563 C 190.9375 399.726563 186.769531 398.871094 183.132813 397.191406 C 179.5 395.511719 176.371094 393.222656 173.839844 390.386719 C 171.3125 387.546875 169.34375 384.214844 168 380.480469 C 166.648438 376.730469 165.964844 372.746094 165.964844 368.632813 C 165.964844 364.515625 166.648438 360.535156 168 356.78125 C 169.347656 353.035156 171.3125 349.703125 173.839844 346.875 C 176.359375 344.054688 179.488281 341.765625 183.132813 340.078125 C 186.773438 338.390625 190.945313 337.539063 195.523438 337.539063 C 200.101563 337.539063 204.269531 338.390625 207.914063 340.074219 C 211.570313 341.773438 214.695313 344.058594 217.207031 346.875 C 219.730469 349.703125 221.695313 353.035156 223.050781 356.78125 C 224.398438 360.535156 225.082031 364.515625 225.082031 368.632813 C 225.082031 372.746094 224.398438 376.730469 223.050781 380.484375 C 221.691406 384.234375 219.726563 387.566406 217.207031 390.386719 C 214.679688 393.214844 211.554688 395.503906 207.921875 397.191406 C 204.277344 398.875 200.109375 399.726563 195.523438 399.726563 M 195.523438 330.253906 C 190.128906 330.253906 185.042969 331.226563 180.410156 333.144531 C 175.789063 335.058594 171.730469 337.75 168.339844 341.140625 C 164.953125 344.523438 162.261719 348.605469 160.339844 353.265625 C 158.425781 357.921875 157.453125 363.089844 157.453125 368.632813 C 157.453125 374.171875 158.425781 379.34375 160.339844 383.996094 C 162.261719 388.65625 164.953125 392.738281 168.339844 396.121094 C 171.730469 399.511719 175.789063 402.203125 180.414063 404.117188 C 189.664063 407.960938 201.386719 407.960938 210.636719 404.117188 C 215.257813 402.203125 219.320313 399.511719 222.710938 396.121094 C 226.097656 392.738281 228.789063 388.65625 230.714844 383.996094 C 232.621094 379.332031 233.597656 374.160156 233.597656 368.632813 C 233.597656 363.101563 232.621094 357.933594 230.707031 353.261719 C 228.789063 348.605469 226.09375 344.523438 222.710938 341.140625 C 219.320313 337.75 215.257813 335.058594 210.636719 333.140625 C 206.007813 331.226563 200.921875 330.253906 195.523438 330.253906 M 195.523438 410.902344 C 189.609375 410.902344 184.023438 409.832031 178.921875 407.714844 C 173.828125 405.601563 169.339844 402.625 165.585938 398.875 C 161.835938 395.121094 158.859375 390.617188 156.742188 385.480469 C 154.628906 380.351563 153.5625 374.683594 153.5625 368.632813 C 153.5625 362.582031 154.628906 356.914063 156.738281 351.785156 C 158.863281 346.644531 161.835938 342.140625 165.585938 338.390625 C 169.339844 334.636719 173.828125 331.660156 178.921875 329.550781 C 189.132813 325.320313 201.910156 325.316406 212.128906 329.546875 C 217.222656 331.660156 221.707031 334.636719 225.464844 338.390625 C 229.214844 342.140625 232.1875 346.644531 234.308594 351.785156 C 236.421875 356.925781 237.488281 362.59375 237.488281 368.632813 C 237.488281 374.671875 236.421875 380.339844 234.3125 385.476563 C 232.191406 390.617188 229.214844 395.121094 225.464844 398.875 C 221.710938 402.625 217.222656 405.601563 212.128906 407.714844 C 207.023438 409.832031 201.4375 410.902344 195.523438 410.902344 "/>
<path style=" stroke:none;fill-rule:nonzero;fill:rgb(2.69928%,57.598877%,26.699829%);fill-opacity:1;" d="M 274.574219 407.113281 L 286.363281 407.113281 L 286.363281 330.152344 L 274.574219 330.152344 Z M 274.574219 407.113281 "/>
<path style=" stroke:none;fill-rule:nonzero;fill:rgb(100%,100%,100%);fill-opacity:1;" d="M 276.519531 405.167969 L 284.417969 405.167969 L 284.417969 332.101563 L 276.519531 332.101563 Z M 288.308594 409.0625 L 272.628906 409.0625 L 272.628906 328.207031 L 288.308594 328.207031 Z M 288.308594 409.0625 "/>
<path style=" stroke:none;fill-rule:nonzero;fill:rgb(2.69928%,57.598877%,26.699829%);fill-opacity:1;" d="M 348.925781 362.222656 C 351.964844 362.222656 354.5625 361.910156 356.648438 361.292969 C 358.632813 360.699219 360.214844 359.925781 361.351563 358.984375 C 362.425781 358.101563 363.207031 357.050781 363.679688 355.871094 C 364.1875 354.609375 364.4375 353.214844 364.4375 351.722656 C 364.4375 350.296875 364.1875 348.941406 363.679688 347.679688 C 363.199219 346.472656 362.433594 345.433594 361.320313 344.484375 C 360.214844 343.542969 358.644531 342.78125 356.667969 342.21875 C 354.589844 341.628906 351.972656 341.328125 348.925781 341.328125 L 338.007813 341.328125 L 338.007813 362.222656 Z M 366.71875 407.113281 L 346.839844 373.402344 L 338.007813 373.402344 L 338.007813 407.113281 L 326.21875 407.113281 L 326.21875 330.152344 L 350.769531 330.152344 C 358.59375 330.152344 364.917969 331.921875 369.5625 335.410156 C 374.394531 339.050781 376.84375 344.535156 376.84375 351.722656 C 376.84375 357.335938 375.050781 362.132813 371.5 365.976563 C 368.597656 369.128906 364.644531 371.210938 359.71875 372.1875 L 380.925781 407.113281 "/>
<path style=" stroke:none;fill-rule:nonzero;fill:rgb(100%,100%,100%);fill-opacity:1;" d="M 339.953125 360.277344 L 348.925781 360.277344 C 351.78125 360.277344 354.199219 359.992188 356.09375 359.425781 C 357.824219 358.910156 359.179688 358.257813 360.121094 357.484375 C 360.933594 356.808594 361.527344 356.019531 361.878906 355.152344 C 362.289063 354.121094 362.492188 352.96875 362.492188 351.722656 C 362.492188 350.550781 362.289063 349.429688 361.878906 348.402344 C 361.511719 347.484375 360.933594 346.714844 360.058594 345.964844 C 359.164063 345.203125 357.839844 344.574219 356.136719 344.089844 C 354.222656 343.546875 351.796875 343.273438 348.925781 343.273438 L 339.953125 343.273438 Z M 348.925781 364.171875 L 336.0625 364.171875 L 336.0625 339.382813 L 348.925781 339.382813 C 352.15625 339.382813 354.9375 339.703125 357.203125 340.347656 C 359.445313 340.980469 361.253906 341.875 362.585938 343 C 363.945313 344.167969 364.894531 345.460938 365.488281 346.960938 C 366.078125 348.445313 366.386719 350.050781 366.386719 351.722656 C 366.386719 353.46875 366.078125 355.105469 365.488281 356.59375 C 364.894531 358.078125 363.921875 359.386719 362.601563 360.484375 C 361.253906 361.589844 359.4375 362.488281 357.203125 363.160156 C 354.945313 363.828125 352.164063 364.171875 348.925781 364.171875 M 367.828125 405.167969 L 377.46875 405.167969 L 356.617188 370.816406 L 359.339844 370.277344 C 363.851563 369.382813 367.464844 367.492188 370.070313 364.65625 C 373.277344 361.183594 374.898438 356.835938 374.898438 351.722656 C 374.898438 345.179688 372.710938 340.21875 368.390625 336.964844 C 364.097656 333.738281 358.167969 332.101563 350.769531 332.101563 L 328.164063 332.101563 L 328.164063 405.167969 L 336.0625 405.167969 L 336.0625 371.457031 L 347.949219 371.457031 Z M 384.386719 409.058594 L 365.609375 409.058594 L 345.730469 375.347656 L 339.953125 375.347656 L 339.953125 409.058594 L 324.269531 409.058594 L 324.269531 328.207031 L 350.769531 328.207031 C 359.027344 328.207031 365.746094 330.109375 370.730469 333.855469 C 376.085938 337.882813 378.789063 343.894531 378.789063 351.722656 C 378.789063 357.84375 376.820313 363.085938 372.929688 367.296875 C 370.300781 370.15625 366.886719 372.214844 362.757813 373.441406 "/>
<path style=" stroke:none;fill-rule:nonzero;fill:rgb(2.69928%,57.598877%,26.699829%);fill-opacity:1;" d="M 419.769531 407.113281 L 419.769531 330.152344 L 469.171875 330.152344 L 469.171875 341.328125 L 431.566406 341.328125 L 431.566406 361.609375 L 466.714844 361.609375 L 466.714844 372.785156 L 431.566406 372.785156 L 431.566406 395.9375 L 470.402344 395.9375 L 470.402344 407.113281 "/>
<path style=" stroke:none;fill-rule:nonzero;fill:rgb(100%,100%,100%);fill-opacity:1;" d="M 421.714844 405.167969 L 468.457031 405.167969 L 468.457031 397.882813 L 429.621094 397.882813 L 429.621094 370.839844 L 464.769531 370.839844 L 464.769531 363.554688 L 429.621094 363.554688 L 429.621094 339.382813 L 467.226563 339.382813 L 467.226563 332.101563 L 421.714844 332.101563 Z M 472.347656 409.0625 L 417.824219 409.0625 L 417.824219 328.207031 L 471.117188 328.207031 L 471.117188 343.273438 L 433.511719 343.273438 L 433.511719 359.664063 L 468.664063 359.664063 L 468.664063 374.730469 L 433.511719 374.730469 L 433.511719 393.992188 L 472.347656 393.992188 "/>
</g>
</svg>
