<svg xmlns="http://www.w3.org/2000/svg" width="2259" height="675" viewBox="0 0 2259 675">
  <defs>
    <style>
      .cls-1 {
        fill: #fff;
      }

      .cls-1, .cls-2 {
        fill-rule: evenodd;
      }

      .cls-2 {
        fill: #f8991c;
      }
    </style>
  </defs>
  <path id="Color_Fill_2" data-name="Color Fill 2" class="cls-1" d="M2041,146c1.67,0.333,3.33.667,5,1l3,2q0.495,38.5,1,77h1c10.23-3.095,20.74-10.167,33-13,9.16-2.116,18.76,1.675,24,3,49.62,12.552,52,41.18,52,103q-0.495,33.5-1,67h-38c1.02-50.67,17.83-162.332-50-137q-10.005,7-20,14c0.2,25.327,5.52,107.385-2,124l-39-1V211c0-12.6-4.89-52.3,3-58Zm186,6c20.26-.962,31.63,5.785,32,24-3.99,7.174-6.96,13.735-15,17C2210.37,203.825,2205.16,165.9,2227,152Zm-827,6c15.34-.661,23.32,4.429,27,15,2.42,5.381.31,13.423-1,18-10.78,8.705-22.67,11.471-36,3-3.5-9.616-3.69-16.483-1-27Q1394.505,162.5,1400,158Zm186,55c12.24,2.186,37.53,3.569,43,13,1.98,6.806-4.78,18.576-7,26-0.67.333-1.33,0.667-2,1-17.27-8.042-40.44-14.334-56,0v13c23.04,30.966,58.09,15.515,79,64,3.31,7.669-1.49,20.975-3,25-15.29,40.783-78.09,40.678-114,20v-5q5.505-13,11-26c15.79,9.5,41.53,21.5,62,7,9.99-36.793-39.63-40.79-60-57-20.22-16.088-18.89-57.778,3-71C1554.03,215.734,1571.22,218.713,1586,213Zm325,1c18.64-.58,47.12,2.04,55,13l-9,26c-15.15-3.971-29.3-11.708-50-8-6.37,4.479-9.31,8.521-9,20,31.02,22.492,65.25,26.953,80,67,2.23,6.055-.9,16.751-2,20-13.64,40.453-80.5,46.6-117,21,3.76-8.169,7.25-23.751,18-25,13.26,8.558,50.63,18.655,59-2,6.86-29.974-40.41-36.572-57-48-25.07-17.273-27.51-59.465,0-76Q1895.005,218,1911,214Zm-235,4h39c-0.74,38.194-9.96,131.335,19,138,70.46,16.213,53.04-83.132,52-138h38V384l-38-1c-0.33-3.666-.67-7.334-1-11h-1c-12.56,5.275-27.24,13.454-42,17C1657.35,409.338,1675.33,288.579,1676,218Zm518,31q0.495-14.5,1-29l3-1c10.87-4.617,47.2-2.682,55,2V334c0,16.624-2.04,38.713,2,52h-40q-0.495-68.493-1-137h-20ZM790,222c25.282-.758,19.234,1.221,31,12l3,1c11.282-14.447,45.443-20.789,70-12,8.9,3.185,11.963,10.594,23,12,9.414-15.481,53.928-21.267,74-10,29.17,16.377,27,52.915,27,99,0,13.1,4.23,55.408-2,60v3l-36-1c-9.125-37.778,21.81-151.091-37-135-42.733,11.692-5.685,98.171-22,136l-37-1q-0.5-60.995-1-122c-13.5-29.568-45.983-9.152-59,5-0.217,32.737-6.4,89.537,2,117h-2c-7.182,3.158-31.324,2.308-37-1,6.032-8.206,3-31.606,3-45V222Zm322-2c46.88-.939,73.35,7.617,88,38,28.3,58.7-4.45,117.66-53,129-70.08,16.368-114.46-49.3-92-117C1064.91,240.14,1084.7,233.064,1112,220Zm196,0c15.26-.248,30.67.24,42,3,1.8,8.133-8.87,29.1-17,31-51.34-25.894-55,34.469-55,82,0,15.961-2.03,37.375,2,50h-38c-0.22-30.435-6.36-145.572,3-163h31l3,13C1288.48,230.637,1297.13,225.8,1308,220Zm60,30q0.495-12.5,1-25c0.67-1,1.33-2,2-3l53,1c-0.24,49-6.77,122.06,2,163h-39V252l-3-1Zm-244,0c-10.4,4.476-19.51,6.965-25,16-18.56,30.527-10.25,99.208,36,91C1180.9,348.854,1186.32,248.3,1124,250ZM927,433v31c31-7.173,44.975.977,45,37q-0.5,14.5-1,29l-17-1c0.484-14,3.937-45.614-5-51-6.328-5.9-15.753-1.58-21,2q-0.5,25-1,50l-2,1H913l-2-1c-0.235-14.834-3.419-87.877,2-94Zm486,43q-0.495,27-1,54h-16V476l-10-1q0.495-6.5,1-13l9-1c0.37-21.231,20.85-33.861,40-24-0.33,1-.67,2-1,3q-1.995,4.5-4,9c-12.29-2.286-17.39.707-19,12,0.33,0.333.67,0.667,1,1l14,1c0.3,5.117.39,9.611-2,12Zm739,54h-17c0.21-16.375,1.29-36.8-2-50l-6-4c-8.74-2.661-13.97,1.29-19,5,0.35,14.025,3.46,41.447-3,50h-12c-0.67-.333-1.33-0.667-2-1-0.24-22.856-5.61-78.268,2-95l14-2c0.33,0.333.67,0.667,1,1v30h1C2153.07,449.905,2153.29,486.505,2152,530Zm-652-1-16,1q-0.495-27-1-54l-10-2q0.495-6,1-12c20.97-1.364.83-28.8,49-26v3c-1.71,3.846-3.29,7.224-6,10-6.85-2.425-10.99.119-15,3-0.67,3-1.33,6-2,9,0.33,0.333.67,0.667,1,1l13,1q-0.495,6.5-1,13h-13v53Zm171-94,10,2,3,5c-0.11,6.529-1.05,8.476-5,11-2.33.667-4.67,1.333-7,2C1663.42,448.442,1663.93,442.537,1671,435Zm507,0,6,1c4.95,2.117,6.61,4.173,7,11-1.33,2-2.67,4-4,6l-8,2c-3.73-3.124-5.58-4.365-8-9C2172.29,439.712,2174.6,438.743,2178,435ZM899,462v13l-18,1c-3.166,10.213-2.568,35.383,4,40,5.678,2.061,13.5-.833,16,1v12l-26-1a13.9,13.9,0,0,1-8-8c-5.019-13.861,3.826-36.278-6-45h-5q-0.5-5.5-1-11c2.468-1.482,3.368-1.808,8-2-0.308-7.64.464-11.916,3-16l14-3q0.5,9.5,1,19h18Zm331,0c-0.74-15.554,4.66-17.152,16-20q0.495,10,1,20h18c0.33,1,.67,2,1,3-0.33,3.333-.67,6.667-1,10h-2l-17,1q0.495,19.5,1,39c1.67,1,3.33,2,5,3,7.04,2.044,11.99-1.822,16-2v13l-3,1-27-1c-11.34-15.772-1.26-37.728-10-54h-6V464c0.33-.667.67-1.333,1-2h7Zm-218-2c24.85-.954,43.54,13.5,38,39-0.67,1-1.33,2-2,3l-47,1v1c1.77,6.16,4.36,9.668,10,12,10.44,3.144,19.6-2.6,27-2q1.995,6,4,12C988.815,553.438,957.023,489.676,1012,460Zm330,0c49.23-1.81,48.21,67.178,15,71-32.09,3.693-58.93-28.272-36-59C1326.12,465.133,1333.94,464.145,1342,460Zm278,0c10.04-.4,20.11,1.075,25,6l-3,11c-0.67.333-1.33,0.667-2,1-3.98-2.362-11.2-5.573-17-3-1.67,1.333-3.33,2.667-5,4l3,6c10.6,3.4,23.3,8.471,27,19,5.92,13.157-4.59,20.645-10,26-9.94-.66-28.42.451-34-3-2.07-1.963-1.04-.375-2-4q1.995-4.5,4-9c11.05,2.02,16.23,6.816,26,1-0.33-2.666-.67-5.334-1-8-14.73-7.094-32.49-12.24-29-35C1607.01,465.058,1612.3,464.4,1620,460Zm104,0c43.52-1.618,51.03,62.85,19,70-37.25,8.315-61.59-27.31-41-57C1707.16,465.565,1715.52,464.352,1724,460Zm325,0c11.4-.217,18.07,2.361,26,5-0.96,5.021-2.93,10-6,13-5.93-3.831-15.73-6.228-21,0,0.33,1.333.67,2.667,1,4,6.06,8.807,21.56,12.76,29,21,1.12,12.028-.74,16.68-6,24-10.03,2.951-30.85,3.17-41,0q1.995-6.5,4-13c8.72,1.178,12.98,5.32,22,4,1.67-1.667,3.33-3.333,5-5-6.01-19.061-31.4-10.6-32-38C2035.27,465.782,2039.72,465.239,2049,460Zm-940,2c58.94-1.162,40.55,23.023,51,66l-3,2c-6.08,1.184-10.63-4.706-15-6-7.56-2.24-22.25,9.267-35,4-6.64-3.016-7.11-7.111-9-15-5.98-24.974,20.66-24.266,40-29v-3c-2.33-1.666-4.67-3.334-7-5-7.32-2.141-16.42-.217-23,1l-3-11C1106.33,464.667,1107.67,463.333,1109,462Zm63,0c8-.032,15.7,4.309,19,4,5.72-.537,15.29-4.912,25-3,0.33,1.666.67,3.334,1,5l-6,9a25.988,25.988,0,0,0-15-1l-6,8q-1.005,23-2,46l-17-1Q1171.495,495.5,1172,462Zm373,0c-0.36,17.325-2.63,43.026,4,54,11.63,3.2,17.57-.8,24-8V462l16,1c0.33,17.52,5.4,56.773-3,68-7.44-1.634-11.69,1.593-14-5h-1c-31.65,10.029-43,4.988-43-34q0.495-15,1-30h16Zm112,0,26,1v67h-17q-0.495-27-1-54l-8-1V462Zm118,0c8.62,0.157,9.02,3.837,13,5,6.57,1.919,18.5-8.681,30-4l15,14c3.22,7.285,5.87,45.683,0,52h-15c0.58-16.607,3.92-47.184-7-53-30.35-8.938-15.98,36.276-20,54l-17-1Q1774.5,495.5,1775,462Zm136,0,28,2c0.33,0.333.67,0.667,1,1-0.46,5.633-2.04,9.886-5,13-3.98-2.362-11.2-5.573-17-3-3.29,1.643-3.19,2.032-5,5,5.99,8.692,45.31,18.127,29,40l-9,10c-11.56-.089-29.07.245-35-6q1.995-4.5,4-9c8.95,1.661,18.87,7.584,24-1,0.33-1.333.67-2.667,1-4-8.51-9.1-20.88-16.56-30-25q0.495-6,1-12C1900.8,466.252,1904.88,465.357,1911,462Zm47,0,16,1c-0.37,17.525-2.2,41.578,4,53,10.39,2.661,15.85.139,23-5q0.495-24.5,1-49l17,1q-0.495,33.5-1,67c-16.54.229-37.54,2.216-54-3C1956.18,512.35,1957.78,485.2,1958,462Zm206,0h25v68c-0.67.333-1.33,0.667-2,1h-12c-0.67-.333-1.33-0.667-2-1,0.29-15.08,4.08-44.046-2-55h-7V462Zm-818,12c-2.33.667-4.67,1.333-7,2-7.59,9.959-9.51,27.053-2,39l5,2c6.08,1.77,10.29-.181,15-2,4.11-7.2,8.96-20.429,4-31C1358.39,477.094,1354.57,474.965,1346,474Zm382,0c-2.33.667-4.67,1.333-7,2-11.56,15.05-8.37,54.953,19,38C1746.64,498.657,1749.07,476.535,1728,474Zm-695,15v-6q-4.005-3.5-8-7h-15c-4.49,3.2-7.12,5.989-8,13h31Zm90,8-9,7c-0.24,7.159.63,10.2,3,14,0.67,0.333,1.33.667,2,1l16-2c2.7-5.859,6.44-11.339,4-20h-16Z"/>
  <path id="Color_Fill_1" data-name="Color Fill 1" class="cls-2" d="M307,0C486.32-2.7,592.281,82.495,644,207c33.618,80.929,34.529,192.3-3,271C587.89,589.381,502.721,648.61,363,675c-53.836,10.169-119.467-11.122-153-25C82.935,597.414-51.193,432.563,14,238,46.7,140.4,111.117,66.241,202,27c22.155-9.566,46.523-16.107,72-22Zm8,48-32,4L233,66C168.615,91.333,100.633,148.71,73,210-2.616,377.714,92.729,546.432,215,600c34.175,14.972,84.907,36.145,140,27,123.725-20.537,196.8-73.333,243-170,30.133-63.052,30.332-163.692,3-229C555.953,120.365,468.581,47.419,315,48Zm-76,72,16,5c-0.923,11.409-7.05,24.934-4,33,22.838-6.728,45.317,2.512,55,13v6c-14.761,23.058-40.247,46.764-62,63q0.5,1,1,2c21.351-.773,91.377-9.86,97,7,4.756,14.261-6.135,34.067-9,44-8,27.729-11.432,78.068-49,69q-0.5-3.5-1-7L183,370c-10.384,2.6-16.743,16.106-31,11-17.988-9.8-10-34.165-14-59-4.944-30.688-12.39-53.323-39-62l1-2c24.165,0.341,97.225-3.146,112-13l38-59q-0.5-1.5-1-3l-27-4c-15.192,10.306-70.421,68.178-95,40q0.5-1.5,1-3C173,197.811,213.353,158.757,239,120Zm141,22c10.7-.273,27.746-1.031,34,4,11.568,9.305.876,91.773-1,107h7c30.154-10.237,60.48-17.436,78-40,2.373-3.056,18-37,18-37,7.406-3.674,42.439,18,46,22v7c-27.816,20.516-53.542,43.456-88,58-9.138,3.857-58.167,10.808-62,14,1.156,10.031.735,34.578,10,40,10.968,8.5,42.357,3.365,57,1,36.437-5.886,78.589-1.95,101,12q0.5,2.5,1,5l-3,2c-14.1,9.866-43.732,6.8-63,10-31.457,5.226-112.835,8.692-126-13-18.919-31.174,2.041-131.053-9-174-2.126-8.27-8.374-9.912-12-16h2Zm1667,3h0ZM235,347l50-10c1.617-1.616,16.627-74.386,16-76l-2-3c-17.736-.491-40.386-3.471-57,1v35l28,1c-0.869,5.13-2.131,7.823-6,10l-26,6Zm-28-85-61,8v1c17.978,26.99,10.959,52.2,23,83,14.634,0.317,35.337,1.974,46-3,7.9-36.077-6.818-26.389-26-41l20-10c0.666-11.356,4.351-29.824,1-38h-3ZM507,371c12.63-.259,23.95.6,33,3,19.055,27.171,8.878,117.114-7,143l-3,1c-16.642-2.721-28.91-12.517-39-22l-99,7c-2.325,1.393-6.494,15.629-8,18-47.852-1.155-19.265-101.736-45-131Zm-221,1c27.168,2.558,49.623,35.679,34,63l-3-2C309.171,414.36,280.641,398.5,286,372Zm-55,11c25.328,10.311,34.528,37.418,34,74C238.321,451.6,230.707,414.647,231,383Zm235,7-89,10c7.7,7.977,6.723,22.212,14,31,21.466-7.036,76.739-31.163,100-7V390H466ZM189,403c15.938,15.62,24.589,47.287,18,79-4.286-.775-7.586-5.555-12-9C185.636,452.8,179.362,431.023,189,403Zm-67,12,20,14q-0.5,34.5-1,69-2.5-2.5-5-5l-14-13V415Zm368,15c-14.488,15.416-46.3,16-76,16l-27,1c0.411,11.192,1.269,29.142,6,37,29.056,2.1,70.773,5.1,97-2V430Z"/>
</svg>
