<svg id="TBS" xmlns="http://www.w3.org/2000/svg" xmlns:xlink="http://www.w3.org/1999/xlink" width="1000" height="1000" viewBox="0 0 1000 1000">
  <defs>
    <style>
      .cls-1, .cls-3 {
        fill: #6e421f;
      }

      .cls-2, .cls-6 {
        fill: #f4e3c2;
      }

      .cls-3, .cls-5 {
        stroke: #f4e3c2;
      }

      .cls-3 {
        stroke-width: 1px;
      }

      .cls-4, .cls-5 {
        fill: #ffce3f;
      }

      .cls-4, .cls-5, .cls-6 {
        fill-rule: evenodd;
      }

      .cls-4 {
        filter: url(#filter);
      }

      .cls-5 {
        stroke-linejoin: round;
        stroke-width: 3px;
        filter: url(#filter-2);
      }
    </style>
    <filter id="filter" x="362.594" y="259.469" width="326.094" height="149.156" filterUnits="userSpaceOnUse">
      <feFlood result="flood" flood-color="#f4e3c2"/>
      <feComposite result="composite" operator="in" in2="SourceGraphic"/>
      <feBlend result="blend" in2="SourceGraphic"/>
    </filter>
    <filter id="filter-2" x="353.531" y="252.531" width="326.094" height="149.157" filterUnits="userSpaceOnUse">
      <feFlood result="flood" flood-color="#6e421f"/>
      <feComposite result="composite" operator="in" in2="SourceGraphic"/>
      <feBlend result="blend" in2="SourceGraphic"/>
    </filter>
  </defs>
  <rect class="cls-1" x="309" y="168" width="425" height="575"/>
  <circle id="_1_copy" data-name="1 copy" class="cls-2" cx="453" cy="337" r="7"/>
  <circle id="_1" data-name="1" class="cls-3" cx="450" cy="334" r="7"/>
  <circle id="_1_copy_2" data-name="1 copy 2" class="cls-2" cx="593" cy="337" r="7"/>
  <circle id="_1_copy_2-2" data-name="1 copy 2" class="cls-3" cx="590" cy="334" r="7"/>
  <path id="Copy" class="cls-4" d="M402.217,279.417V404.936h15.5V279.417H457.1v-16.49H362.592v16.49h39.625ZM533.634,337.5c14.028,0,26.826,13.044,26.826,27.073,0,21.658-15.5,25.1-34.456,25.1-8.122,0-16.49-.246-24.858-0.246V337.5h32.488Zm-8.368-59.314c18.7,0,33.225,2.215,33.225,23.873,0,14.029-11.567,21.412-24.857,21.412H501.146V278.432C509.268,278.432,517.39,278.186,525.266,278.186Zm0,126.75c29.534,0,53.653-6.891,53.653-40.363,0-14.521-11.568-28.8-24.612-33.472,12.306-3.446,22.4-15.5,22.4-29.042,0-31.749-23.381-39.378-51.438-39.378-13.537,0-25.843.246-40.61,0.246V404.936h40.61ZM601.3,389.677a58.342,58.342,0,0,0,42.578,18.951c24.366,0,44.793-15.752,44.793-41.594,0-26.334-19.689-33.226-38.148-39.871-15.5-5.66-30.272-11.075-30.518-28.8,0.246-13.783,13.782-22.4,25.6-22.4a40.534,40.534,0,0,1,28.3,11.814l12.06-12.06a56.585,56.585,0,0,0-40.117-16.244c-22.643,0-42.824,16-42.824,40.363,0,29.78,22.15,36.179,41.593,43.317,14.029,4.922,26.581,10.337,26.581,25.6-0.246,16.244-13.536,23.381-28.3,23.381-10.091,0-21.9-5.907-29.78-14.521Z"/>
  <g style="fill: #ffce3f; filter: url(#filter-2)">
    <path id="TBS-2" data-name="TBS" class="cls-5" d="M393.156,272.474V397.993h15.5V272.474H448.04v-16.49H353.531v16.49h39.625Zm131.417,58.083c14.028,0,26.827,13.044,26.827,27.073,0,21.658-15.506,25.1-34.457,25.1-8.122,0-16.49-.246-24.857-0.246V330.557h32.487Zm-8.368-59.314c18.7,0,33.226,2.215,33.226,23.874,0,14.028-11.568,21.412-24.858,21.412H492.086v-45.04C500.207,271.489,508.329,271.243,516.205,271.243Zm0,126.75c29.534,0,53.653-6.891,53.653-40.363,0-14.521-11.567-28.8-24.611-33.472,12.305-3.445,22.4-15.5,22.4-29.041,0-31.749-23.381-39.379-51.438-39.379-13.536,0-25.842.246-40.609,0.246V397.993h40.609Zm76.039-15.259a58.344,58.344,0,0,0,42.578,18.951c24.366,0,44.794-15.752,44.794-41.594,0-26.334-19.69-33.225-38.148-39.871-15.506-5.66-30.273-11.075-30.519-28.8,0.246-13.783,13.783-22.4,25.6-22.4a40.538,40.538,0,0,1,28.3,11.814l12.059-12.06a56.585,56.585,0,0,0-40.117-16.244c-22.642,0-42.824,16-42.824,40.364,0,29.78,22.151,36.179,41.594,43.316,14.028,4.922,26.58,10.337,26.58,25.6-0.246,16.244-13.536,23.381-28.3,23.381-10.091,0-21.9-5.907-29.78-14.521Z" style="stroke: inherit; filter: none; fill: inherit"/>
  </g>
  <use xlink:href="#TBS-2" style="stroke: #f4e3c2; filter: none; fill: none"/>
  <path id="Shop" class="cls-6" d="M365.688,651.11a35.936,35.936,0,0,0,26.092,11.483c14.932,0,27.451-9.544,27.451-25.2,0-15.957-12.066-20.132-23.378-24.159-9.5-3.43-18.552-6.71-18.7-17.447,0.151-8.351,8.447-13.571,15.686-13.571a24.987,24.987,0,0,1,17.345,7.158l7.391-7.307a34.886,34.886,0,0,0-24.585-9.842c-13.876,0-26.244,9.693-26.244,24.456,0,18.045,13.575,21.922,25.49,26.247,8.6,2.982,16.289,6.263,16.289,15.509-0.151,9.842-8.3,14.167-17.345,14.167-6.184,0-13.423-3.579-18.25-8.8Zm84.464-76.8h-9.8v86.046H450v-37.58h42.08v37.58h9.653V574.31h-9.653v38.624H450C450,594.89,450,592.355,450.152,574.31Zm112.517-2.236c-23.529,0-39.064,22.816-39.064,45.334,0,22.369,15.535,45.185,39.064,45.185s39.063-22.667,39.063-45.185S586.348,572.074,562.669,572.074Zm0,10.289c18.25,0,29.863,17.746,29.863,35.045S580.919,652.3,562.669,652.3c-18.1,0-29.864-17.746-29.864-34.895C532.8,600.109,544.419,582.363,562.669,582.363Zm75.868,1.342c3.318,0,6.636-.149,9.8-0.149,11.463,0,20.362,1.342,20.362,14.466,0,9.693-5.279,16.4-15.233,16.4H633.56v-30.72h4.977Zm16.289,40.414c15.535-.15,25.037-10.29,25.037-26.1,0-19.238-14.328-23.861-31.523-23.861H638.235c-4.525.149-10.256,0.149-14.781,0.149v86.046H633.56V624.119h21.266Z"/>
  <path id="the_bakery" data-name="the bakery" class="cls-6" d="M378.3,509.841v34.707h4.122V509.841H392.9v-4.56H367.768v4.56H378.3Zm26.765-4.56h-4.254v39.267H405V527.4h18.258v17.149h4.188V505.281h-4.188v17.626H405C405,514.673,405,513.516,405.069,505.281Zm56.671,0H439.49v39.267h22.25v-4.7H443.678v-13h15.313v-4.7H443.678V509.977H461.74v-4.7ZM499.564,525.9c3.73,0,7.133,3.607,7.133,7.486,0,5.988-4.123,6.941-9.162,6.941-2.159,0-4.384-.068-6.609-0.068V525.9h8.638Zm-2.225-16.4c4.973,0,8.834.612,8.834,6.6,0,3.879-3.076,5.921-6.609,5.921h-8.638V509.569C493.085,509.569,495.245,509.5,497.339,509.5Zm0,35.047c7.853,0,14.266-1.9,14.266-11.16a10.55,10.55,0,0,0-6.544-9.256,8.566,8.566,0,0,0,5.955-8.03c0-8.779-6.217-10.889-13.677-10.889-3.6,0-6.871.068-10.8,0.068v39.267h10.8ZM538.7,530.189h-13.35L532.022,511Zm-4.515-24.908h-4.319l-13.742,39.267h4.188l3.4-9.8h16.621l3.4,9.8h4.188Zm21.138,0v39.267H559.7v-18.1l16.491,18.1h5.693c-3.076-3.674-7.264-8.1-10.536-11.637-2.617-2.722-5.169-5.444-7.591-8.3l17.865-19.328H575.8l-16.1,17.49v-17.49H555.32Zm57.259,0H590.33v39.267h22.249v-4.7H594.518v-13h15.313v-4.7H594.518V509.977h18.061v-4.7Zm15.837,4.288c1.44,0,2.88-.068,4.319-0.068,4.974,0,8.769.612,8.769,6.6,0,4.083-2.748,6.125-6.609,6.125h-8.573V509.569h2.094Zm8.115,16.673c5.824-.476,9.816-4.015,9.816-10.14,0-8.779-6.217-10.889-13.612-10.889h-5.169c-1.7.068-3.992,0.068-5.694,0.068v39.267h4.45v-18.17h5.5l9.816,18.17h4.581Zm29.186,18.306V527.875l11.452-22.594h-4.711c-2.029,4.22-4.385,8.847-6.479,13.135-0.785,1.633-1.57,3.13-2.356,4.764l-8.834-17.9h-4.646l11.386,22.594v16.673h4.188Z"/>
  <path class="cls-6" d="M361,458l137-1s3.805,4.441,0,8Z"/>
  <path id="Shape_1_copy" data-name="Shape 1 copy" class="cls-6" d="M687,458l-137.309-1s-3.814,4.441,0,8Z"/>
  <path class="cls-6" d="M525,443l-17,18,17,18,16-18Z"/>
</svg>
